<mxfile host="app.diagrams.net" agent="Mozilla/5.0 (Windows NT 10.0; Win64; x64) AppleWebKit/537.36 (KHTML, like Gecko) Chrome/129.0.0.0 Safari/537.36 Edg/129.0.0.0" version="24.7.16">
  <diagram name="Page-1" id="6qBj4V1b7-DVqvcUiwLq">
    <mxGraphModel dx="1852" dy="565" grid="1" gridSize="10" guides="1" tooltips="1" connect="1" arrows="1" fold="1" page="1" pageScale="1" pageWidth="850" pageHeight="1100" math="0" shadow="0">
      <root>
        <mxCell id="0" />
        <mxCell id="1" parent="0" />
        <mxCell id="Y13v9KiVdOfIBAygKM4g-1" value="10" style="rounded=1;whiteSpace=wrap;html=1;" vertex="1" parent="1">
          <mxGeometry x="610" y="370" width="60" height="30" as="geometry" />
        </mxCell>
        <mxCell id="Y13v9KiVdOfIBAygKM4g-2" value="20" style="rounded=1;whiteSpace=wrap;html=1;" vertex="1" parent="1">
          <mxGeometry x="650" y="270" width="60" height="30" as="geometry" />
        </mxCell>
        <mxCell id="Y13v9KiVdOfIBAygKM4g-3" value="&quot;hello&quot;" style="rounded=1;whiteSpace=wrap;html=1;" vertex="1" parent="1">
          <mxGeometry x="650" y="200" width="60" height="30" as="geometry" />
        </mxCell>
        <mxCell id="Y13v9KiVdOfIBAygKM4g-4" value="40" style="rounded=1;whiteSpace=wrap;html=1;" vertex="1" parent="1">
          <mxGeometry x="500" y="170" width="60" height="30" as="geometry" />
        </mxCell>
        <mxCell id="Y13v9KiVdOfIBAygKM4g-5" value="50" style="rounded=1;whiteSpace=wrap;html=1;" vertex="1" parent="1">
          <mxGeometry x="630" y="70" width="60" height="30" as="geometry" />
        </mxCell>
        <mxCell id="Y13v9KiVdOfIBAygKM4g-6" value="60" style="rounded=1;whiteSpace=wrap;html=1;" vertex="1" parent="1">
          <mxGeometry x="520" y="20" width="60" height="30" as="geometry" />
        </mxCell>
        <mxCell id="Y13v9KiVdOfIBAygKM4g-7" value="" style="rounded=1;whiteSpace=wrap;html=1;" vertex="1" parent="1">
          <mxGeometry x="300" y="50" width="90" height="140" as="geometry" />
        </mxCell>
        <mxCell id="Y13v9KiVdOfIBAygKM4g-9" style="rounded=0;orthogonalLoop=1;jettySize=auto;html=1;exitX=1;exitY=0.75;exitDx=0;exitDy=0;entryX=0;entryY=0.25;entryDx=0;entryDy=0;" edge="1" parent="1" source="Y13v9KiVdOfIBAygKM4g-8" target="Y13v9KiVdOfIBAygKM4g-69">
          <mxGeometry relative="1" as="geometry" />
        </mxCell>
        <mxCell id="Y13v9KiVdOfIBAygKM4g-8" value="0" style="rounded=0;whiteSpace=wrap;html=1;" vertex="1" parent="1">
          <mxGeometry x="317.5" y="150" width="55" height="20" as="geometry" />
        </mxCell>
        <mxCell id="Y13v9KiVdOfIBAygKM4g-11" style="rounded=0;orthogonalLoop=1;jettySize=auto;html=1;exitX=1;exitY=0.5;exitDx=0;exitDy=0;entryX=0;entryY=0.25;entryDx=0;entryDy=0;" edge="1" parent="1" source="Y13v9KiVdOfIBAygKM4g-10" target="Y13v9KiVdOfIBAygKM4g-5">
          <mxGeometry relative="1" as="geometry" />
        </mxCell>
        <mxCell id="Y13v9KiVdOfIBAygKM4g-10" value="1" style="rounded=0;whiteSpace=wrap;html=1;" vertex="1" parent="1">
          <mxGeometry x="317.5" y="130" width="55" height="20" as="geometry" />
        </mxCell>
        <mxCell id="Y13v9KiVdOfIBAygKM4g-13" style="rounded=0;orthogonalLoop=1;jettySize=auto;html=1;exitX=1;exitY=0.5;exitDx=0;exitDy=0;entryX=0;entryY=0.5;entryDx=0;entryDy=0;" edge="1" parent="1" source="Y13v9KiVdOfIBAygKM4g-12" target="Y13v9KiVdOfIBAygKM4g-6">
          <mxGeometry relative="1" as="geometry" />
        </mxCell>
        <mxCell id="Y13v9KiVdOfIBAygKM4g-12" value="2" style="rounded=0;whiteSpace=wrap;html=1;" vertex="1" parent="1">
          <mxGeometry x="317.5" y="110" width="55" height="20" as="geometry" />
        </mxCell>
        <mxCell id="Y13v9KiVdOfIBAygKM4g-14" value="" style="rounded=1;whiteSpace=wrap;html=1;" vertex="1" parent="1">
          <mxGeometry x="120" y="270" width="90" height="140" as="geometry" />
        </mxCell>
        <mxCell id="Y13v9KiVdOfIBAygKM4g-18" style="rounded=0;orthogonalLoop=1;jettySize=auto;html=1;exitX=1;exitY=0.5;exitDx=0;exitDy=0;entryX=0;entryY=0.25;entryDx=0;entryDy=0;fillColor=#dae8fc;strokeColor=#6c8ebf;" edge="1" parent="1" source="Y13v9KiVdOfIBAygKM4g-15" target="Y13v9KiVdOfIBAygKM4g-1">
          <mxGeometry relative="1" as="geometry" />
        </mxCell>
        <mxCell id="Y13v9KiVdOfIBAygKM4g-15" value="0" style="rounded=0;whiteSpace=wrap;html=1;" vertex="1" parent="1">
          <mxGeometry x="137.5" y="370" width="55" height="20" as="geometry" />
        </mxCell>
        <mxCell id="Y13v9KiVdOfIBAygKM4g-19" style="rounded=0;orthogonalLoop=1;jettySize=auto;html=1;exitX=1;exitY=0.25;exitDx=0;exitDy=0;entryX=0;entryY=0.25;entryDx=0;entryDy=0;fillColor=#dae8fc;strokeColor=#6c8ebf;" edge="1" parent="1" source="Y13v9KiVdOfIBAygKM4g-16" target="Y13v9KiVdOfIBAygKM4g-2">
          <mxGeometry relative="1" as="geometry" />
        </mxCell>
        <mxCell id="Y13v9KiVdOfIBAygKM4g-16" value="1" style="rounded=0;whiteSpace=wrap;html=1;" vertex="1" parent="1">
          <mxGeometry x="137.5" y="350" width="55" height="20" as="geometry" />
        </mxCell>
        <mxCell id="Y13v9KiVdOfIBAygKM4g-21" style="rounded=0;orthogonalLoop=1;jettySize=auto;html=1;exitX=1;exitY=0.5;exitDx=0;exitDy=0;entryX=0;entryY=0.5;entryDx=0;entryDy=0;fillColor=#dae8fc;strokeColor=#6c8ebf;" edge="1" parent="1" source="Y13v9KiVdOfIBAygKM4g-17" target="Y13v9KiVdOfIBAygKM4g-3">
          <mxGeometry relative="1" as="geometry" />
        </mxCell>
        <mxCell id="Y13v9KiVdOfIBAygKM4g-17" value="2" style="rounded=0;whiteSpace=wrap;html=1;" vertex="1" parent="1">
          <mxGeometry x="137.5" y="330" width="55" height="20" as="geometry" />
        </mxCell>
        <mxCell id="Y13v9KiVdOfIBAygKM4g-23" style="rounded=0;orthogonalLoop=1;jettySize=auto;html=1;exitX=1;exitY=0.5;exitDx=0;exitDy=0;entryX=0;entryY=0.75;entryDx=0;entryDy=0;fillColor=#dae8fc;strokeColor=#6c8ebf;" edge="1" parent="1" source="Y13v9KiVdOfIBAygKM4g-22" target="Y13v9KiVdOfIBAygKM4g-7">
          <mxGeometry relative="1" as="geometry" />
        </mxCell>
        <mxCell id="Y13v9KiVdOfIBAygKM4g-22" value="3" style="rounded=0;whiteSpace=wrap;html=1;" vertex="1" parent="1">
          <mxGeometry x="137.5" y="310" width="55" height="20" as="geometry" />
        </mxCell>
        <mxCell id="Y13v9KiVdOfIBAygKM4g-25" style="rounded=0;orthogonalLoop=1;jettySize=auto;html=1;exitX=1;exitY=0.5;exitDx=0;exitDy=0;entryX=0;entryY=0.5;entryDx=0;entryDy=0;" edge="1" parent="1" source="Y13v9KiVdOfIBAygKM4g-24" target="Y13v9KiVdOfIBAygKM4g-14">
          <mxGeometry relative="1" as="geometry" />
        </mxCell>
        <mxCell id="Y13v9KiVdOfIBAygKM4g-24" value="a" style="rounded=0;whiteSpace=wrap;html=1;" vertex="1" parent="1">
          <mxGeometry x="-150" y="170" width="90" height="30" as="geometry" />
        </mxCell>
        <mxCell id="Y13v9KiVdOfIBAygKM4g-26" value="" style="rounded=1;whiteSpace=wrap;html=1;" vertex="1" parent="1">
          <mxGeometry x="320" y="1760" width="80" height="200" as="geometry" />
        </mxCell>
        <mxCell id="Y13v9KiVdOfIBAygKM4g-51" style="edgeStyle=orthogonalEdgeStyle;rounded=0;orthogonalLoop=1;jettySize=auto;html=1;exitX=0.5;exitY=0;exitDx=0;exitDy=0;entryX=0.5;entryY=1;entryDx=0;entryDy=0;" edge="1" parent="1" source="Y13v9KiVdOfIBAygKM4g-27" target="Y13v9KiVdOfIBAygKM4g-40">
          <mxGeometry relative="1" as="geometry" />
        </mxCell>
        <mxCell id="Y13v9KiVdOfIBAygKM4g-27" value="n" style="rounded=0;whiteSpace=wrap;html=1;" vertex="1" parent="1">
          <mxGeometry x="340" y="1770" width="40" height="50" as="geometry" />
        </mxCell>
        <mxCell id="Y13v9KiVdOfIBAygKM4g-28" value="p" style="rounded=0;whiteSpace=wrap;html=1;" vertex="1" parent="1">
          <mxGeometry x="340" y="1890" width="40" height="50" as="geometry" />
        </mxCell>
        <mxCell id="Y13v9KiVdOfIBAygKM4g-39" style="rounded=0;orthogonalLoop=1;jettySize=auto;html=1;exitX=1;exitY=0.5;exitDx=0;exitDy=0;entryX=0;entryY=0.75;entryDx=0;entryDy=0;" edge="1" parent="1" source="Y13v9KiVdOfIBAygKM4g-29" target="Y13v9KiVdOfIBAygKM4g-30">
          <mxGeometry relative="1" as="geometry" />
        </mxCell>
        <mxCell id="Y13v9KiVdOfIBAygKM4g-29" value="d" style="rounded=0;whiteSpace=wrap;html=1;" vertex="1" parent="1">
          <mxGeometry x="340" y="1830" width="40" height="50" as="geometry" />
        </mxCell>
        <mxCell id="Y13v9KiVdOfIBAygKM4g-30" value="10" style="rounded=1;whiteSpace=wrap;html=1;" vertex="1" parent="1">
          <mxGeometry x="660" y="1690" width="60" height="30" as="geometry" />
        </mxCell>
        <mxCell id="Y13v9KiVdOfIBAygKM4g-31" value="20" style="rounded=1;whiteSpace=wrap;html=1;" vertex="1" parent="1">
          <mxGeometry x="630" y="1620" width="60" height="30" as="geometry" />
        </mxCell>
        <mxCell id="Y13v9KiVdOfIBAygKM4g-32" value="30" style="rounded=1;whiteSpace=wrap;html=1;" vertex="1" parent="1">
          <mxGeometry x="670" y="1540" width="60" height="30" as="geometry" />
        </mxCell>
        <mxCell id="Y13v9KiVdOfIBAygKM4g-52" style="edgeStyle=orthogonalEdgeStyle;rounded=0;orthogonalLoop=1;jettySize=auto;html=1;exitX=0.5;exitY=0;exitDx=0;exitDy=0;entryX=0.5;entryY=1;entryDx=0;entryDy=0;" edge="1" parent="1" source="Y13v9KiVdOfIBAygKM4g-40" target="Y13v9KiVdOfIBAygKM4g-45">
          <mxGeometry relative="1" as="geometry" />
        </mxCell>
        <mxCell id="Y13v9KiVdOfIBAygKM4g-40" value="" style="rounded=1;whiteSpace=wrap;html=1;" vertex="1" parent="1">
          <mxGeometry x="307.5" y="1500" width="80" height="200" as="geometry" />
        </mxCell>
        <mxCell id="Y13v9KiVdOfIBAygKM4g-41" value="n" style="rounded=0;whiteSpace=wrap;html=1;" vertex="1" parent="1">
          <mxGeometry x="327.5" y="1510" width="40" height="50" as="geometry" />
        </mxCell>
        <mxCell id="Y13v9KiVdOfIBAygKM4g-54" style="edgeStyle=orthogonalEdgeStyle;rounded=0;orthogonalLoop=1;jettySize=auto;html=1;exitX=0;exitY=0.5;exitDx=0;exitDy=0;entryX=0;entryY=0.25;entryDx=0;entryDy=0;" edge="1" parent="1" source="Y13v9KiVdOfIBAygKM4g-42" target="Y13v9KiVdOfIBAygKM4g-26">
          <mxGeometry relative="1" as="geometry">
            <Array as="points">
              <mxPoint x="280" y="1655" />
              <mxPoint x="280" y="1810" />
            </Array>
          </mxGeometry>
        </mxCell>
        <mxCell id="Y13v9KiVdOfIBAygKM4g-42" value="p" style="rounded=0;whiteSpace=wrap;html=1;" vertex="1" parent="1">
          <mxGeometry x="327.5" y="1630" width="40" height="50" as="geometry" />
        </mxCell>
        <mxCell id="Y13v9KiVdOfIBAygKM4g-44" style="rounded=0;orthogonalLoop=1;jettySize=auto;html=1;exitX=1;exitY=0.75;exitDx=0;exitDy=0;entryX=0;entryY=0.75;entryDx=0;entryDy=0;" edge="1" parent="1" source="Y13v9KiVdOfIBAygKM4g-43" target="Y13v9KiVdOfIBAygKM4g-31">
          <mxGeometry relative="1" as="geometry" />
        </mxCell>
        <mxCell id="Y13v9KiVdOfIBAygKM4g-43" value="d" style="rounded=0;whiteSpace=wrap;html=1;" vertex="1" parent="1">
          <mxGeometry x="327.5" y="1570" width="40" height="50" as="geometry" />
        </mxCell>
        <mxCell id="Y13v9KiVdOfIBAygKM4g-45" value="" style="rounded=1;whiteSpace=wrap;html=1;" vertex="1" parent="1">
          <mxGeometry x="307.5" y="1280" width="80" height="200" as="geometry" />
        </mxCell>
        <mxCell id="Y13v9KiVdOfIBAygKM4g-46" value="n" style="rounded=0;whiteSpace=wrap;html=1;" vertex="1" parent="1">
          <mxGeometry x="327.5" y="1290" width="40" height="50" as="geometry" />
        </mxCell>
        <mxCell id="Y13v9KiVdOfIBAygKM4g-47" value="p" style="rounded=0;whiteSpace=wrap;html=1;" vertex="1" parent="1">
          <mxGeometry x="327.5" y="1410" width="40" height="50" as="geometry" />
        </mxCell>
        <mxCell id="Y13v9KiVdOfIBAygKM4g-49" style="rounded=0;orthogonalLoop=1;jettySize=auto;html=1;exitX=1;exitY=0.5;exitDx=0;exitDy=0;entryX=0;entryY=0.75;entryDx=0;entryDy=0;" edge="1" parent="1" source="Y13v9KiVdOfIBAygKM4g-48" target="Y13v9KiVdOfIBAygKM4g-32">
          <mxGeometry relative="1" as="geometry" />
        </mxCell>
        <mxCell id="Y13v9KiVdOfIBAygKM4g-48" value="d" style="rounded=0;whiteSpace=wrap;html=1;" vertex="1" parent="1">
          <mxGeometry x="327.5" y="1350" width="40" height="50" as="geometry" />
        </mxCell>
        <mxCell id="Y13v9KiVdOfIBAygKM4g-55" style="edgeStyle=orthogonalEdgeStyle;rounded=0;orthogonalLoop=1;jettySize=auto;html=1;exitX=0;exitY=0.5;exitDx=0;exitDy=0;entryX=-0.009;entryY=0.298;entryDx=0;entryDy=0;entryPerimeter=0;" edge="1" parent="1" source="Y13v9KiVdOfIBAygKM4g-47" target="Y13v9KiVdOfIBAygKM4g-40">
          <mxGeometry relative="1" as="geometry">
            <Array as="points">
              <mxPoint x="270" y="1435" />
              <mxPoint x="270" y="1560" />
            </Array>
          </mxGeometry>
        </mxCell>
        <mxCell id="Y13v9KiVdOfIBAygKM4g-56" value="b" style="rounded=0;whiteSpace=wrap;html=1;" vertex="1" parent="1">
          <mxGeometry x="-150" y="250" width="90" height="30" as="geometry" />
        </mxCell>
        <mxCell id="Y13v9KiVdOfIBAygKM4g-57" style="rounded=0;orthogonalLoop=1;jettySize=auto;html=1;exitX=1;exitY=0.5;exitDx=0;exitDy=0;entryX=-0.018;entryY=0.651;entryDx=0;entryDy=0;entryPerimeter=0;" edge="1" parent="1" source="Y13v9KiVdOfIBAygKM4g-56" target="Y13v9KiVdOfIBAygKM4g-14">
          <mxGeometry relative="1" as="geometry" />
        </mxCell>
        <mxCell id="Y13v9KiVdOfIBAygKM4g-58" value="" style="rounded=1;whiteSpace=wrap;html=1;" vertex="1" parent="1">
          <mxGeometry x="120" y="450" width="90" height="140" as="geometry" />
        </mxCell>
        <mxCell id="Y13v9KiVdOfIBAygKM4g-59" value="0" style="rounded=0;whiteSpace=wrap;html=1;" vertex="1" parent="1">
          <mxGeometry x="137.5" y="550" width="55" height="20" as="geometry" />
        </mxCell>
        <mxCell id="Y13v9KiVdOfIBAygKM4g-60" value="1" style="rounded=0;whiteSpace=wrap;html=1;" vertex="1" parent="1">
          <mxGeometry x="137.5" y="530" width="55" height="20" as="geometry" />
        </mxCell>
        <mxCell id="Y13v9KiVdOfIBAygKM4g-61" value="2" style="rounded=0;whiteSpace=wrap;html=1;" vertex="1" parent="1">
          <mxGeometry x="137.5" y="510" width="55" height="20" as="geometry" />
        </mxCell>
        <mxCell id="Y13v9KiVdOfIBAygKM4g-62" value="3" style="rounded=0;whiteSpace=wrap;html=1;" vertex="1" parent="1">
          <mxGeometry x="137.5" y="490" width="55" height="20" as="geometry" />
        </mxCell>
        <mxCell id="Y13v9KiVdOfIBAygKM4g-63" value="c" style="rounded=0;whiteSpace=wrap;html=1;" vertex="1" parent="1">
          <mxGeometry x="-140" y="485" width="90" height="30" as="geometry" />
        </mxCell>
        <mxCell id="Y13v9KiVdOfIBAygKM4g-64" style="rounded=0;orthogonalLoop=1;jettySize=auto;html=1;exitX=1;exitY=0.5;exitDx=0;exitDy=0;entryX=-0.009;entryY=0.669;entryDx=0;entryDy=0;entryPerimeter=0;" edge="1" parent="1" source="Y13v9KiVdOfIBAygKM4g-63" target="Y13v9KiVdOfIBAygKM4g-58">
          <mxGeometry relative="1" as="geometry" />
        </mxCell>
        <mxCell id="Y13v9KiVdOfIBAygKM4g-65" style="rounded=0;orthogonalLoop=1;jettySize=auto;html=1;exitX=1;exitY=0.5;exitDx=0;exitDy=0;entryX=0;entryY=1;entryDx=0;entryDy=0;fillColor=#ffe6cc;strokeColor=#d79b00;" edge="1" parent="1" source="Y13v9KiVdOfIBAygKM4g-59" target="Y13v9KiVdOfIBAygKM4g-1">
          <mxGeometry relative="1" as="geometry">
            <mxPoint x="203" y="390" as="sourcePoint" />
            <mxPoint x="610" y="375" as="targetPoint" />
          </mxGeometry>
        </mxCell>
        <mxCell id="Y13v9KiVdOfIBAygKM4g-66" style="rounded=0;orthogonalLoop=1;jettySize=auto;html=1;exitX=1;exitY=0.5;exitDx=0;exitDy=0;entryX=0;entryY=0.5;entryDx=0;entryDy=0;fillColor=#ffe6cc;strokeColor=#d79b00;" edge="1" parent="1" source="Y13v9KiVdOfIBAygKM4g-60" target="Y13v9KiVdOfIBAygKM4g-2">
          <mxGeometry relative="1" as="geometry">
            <mxPoint x="203" y="365" as="sourcePoint" />
            <mxPoint x="580" y="290" as="targetPoint" />
          </mxGeometry>
        </mxCell>
        <mxCell id="Y13v9KiVdOfIBAygKM4g-67" style="rounded=0;orthogonalLoop=1;jettySize=auto;html=1;exitX=1;exitY=0.5;exitDx=0;exitDy=0;entryX=0;entryY=0.75;entryDx=0;entryDy=0;fillColor=#ffe6cc;strokeColor=#d79b00;" edge="1" parent="1" source="Y13v9KiVdOfIBAygKM4g-61" target="Y13v9KiVdOfIBAygKM4g-3">
          <mxGeometry relative="1" as="geometry">
            <mxPoint x="203" y="350" as="sourcePoint" />
            <mxPoint x="660" y="225" as="targetPoint" />
          </mxGeometry>
        </mxCell>
        <mxCell id="Y13v9KiVdOfIBAygKM4g-68" style="rounded=0;orthogonalLoop=1;jettySize=auto;html=1;exitX=1;exitY=0.5;exitDx=0;exitDy=0;entryX=0.25;entryY=1;entryDx=0;entryDy=0;fillColor=#ffe6cc;strokeColor=#d79b00;" edge="1" parent="1" source="Y13v9KiVdOfIBAygKM4g-62" target="Y13v9KiVdOfIBAygKM4g-7">
          <mxGeometry relative="1" as="geometry">
            <mxPoint x="203" y="330" as="sourcePoint" />
            <mxPoint x="310" y="165" as="targetPoint" />
          </mxGeometry>
        </mxCell>
        <mxCell id="Y13v9KiVdOfIBAygKM4g-69" value="100" style="rounded=1;whiteSpace=wrap;html=1;" vertex="1" parent="1">
          <mxGeometry x="670" y="130" width="60" height="30" as="geometry" />
        </mxCell>
      </root>
    </mxGraphModel>
  </diagram>
</mxfile>
